<svg width="60" height="60" viewBox="0 0 60 60" fill="none" xmlns="http://www.w3.org/2000/svg">
<path d="M27.0833 35.8333H32.9166V27.0833H41.6666V21.25H32.9166V12.5H27.0833V21.25H18.3333V27.0833H27.0833V35.8333ZM0.833252 59.1667V6.66665C0.833252 5.06248 1.40492 3.68873 2.54825 2.5454C3.69159 1.40207 5.06436 0.831373 6.66659 0.833318H53.3333C54.9374 0.833318 56.3112 1.40498 57.4545 2.54832C58.5978 3.69165 59.1685 5.06443 59.1666 6.66665V41.6667C59.1666 43.2708 58.5949 44.6446 57.4516 45.7879C56.3083 46.9312 54.9355 47.5019 53.3333 47.5H12.4999L0.833252 59.1667Z" fill="white"/>
</svg>
