<svg width="440" height="64" viewBox="0 0 440 64" fill="none" xmlns="http://www.w3.org/2000/svg">
<path d="M16 56V48H8V40H0V16H8V8H16V0H48V8H56V16H40V8H24V16H16V40H24V48H40V40H56V48H48V56H16ZM64 56V0H80V16H112V24H120V56H104V24H80V56H64ZM136 56V48H128V40H136V32H168V24H136V16H176V24H184V56H136ZM144 48H168V40H144V48ZM216 56V24H200V16H216V0H232V16H248V24H232V56H216ZM256 56V16H264V8H272V0H296V8H304V16H312V56H296V40H272V56H256ZM272 32H296V16H288V8H280V16H272V32ZM320 64V16H368V24H376V40H368V48H336V64H320ZM336 40H360V24H336V40ZM384 64V16H432V24H440V40H432V48H400V64H384ZM400 40H424V24H400V40Z" fill="white"/>
</svg>
